<svg width="24" height="24" viewBox="0 0 24 24" fill="none" xmlns="http://www.w3.org/2000/svg">
<path d="M12.1 22C10.7 22 9.38733 21.7333 8.162 21.2C6.93733 20.6667 5.871 19.946 4.963 19.038C4.05433 18.1293 3.33333 17.0623 2.8 15.837C2.26666 14.6123 2 13.3 2 11.9C2 9.46667 2.775 7.32067 4.325 5.462C5.875 3.604 7.85 2.45 10.25 2C9.95 3.65 10.0417 5.26233 10.525 6.837C11.0083 8.41234 11.8417 9.79167 13.025 10.975C14.2083 12.1583 15.5877 12.9917 17.163 13.475C18.7377 13.9583 20.35 14.05 22 13.75C21.5667 16.15 20.4167 18.125 18.55 19.675C16.6833 21.225 14.5333 22 12.1 22ZM12.1 20C13.5667 20 14.925 19.6333 16.175 18.9C17.425 18.1667 18.4083 17.1583 19.125 15.875C17.6917 15.7417 16.3333 15.3793 15.05 14.788C13.7667 14.196 12.6167 13.3917 11.6 12.375C10.5833 11.3583 9.775 10.2083 9.175 8.925C8.575 7.64167 8.21667 6.28333 8.1 4.85C6.81667 5.56667 5.81267 6.554 5.088 7.812C4.36267 9.07067 4 10.4333 4 11.9C4 14.15 4.78766 16.0623 6.363 17.637C7.93766 19.2123 9.85 20 12.1 20Z" fill="#333333"/>
</svg>