<svg width="24" height="24" viewBox="0 0 24 24" fill="none" xmlns="http://www.w3.org/2000/svg">
<path d="M11 6L11 2L13 2L13 6L11 6ZM17.65 8.75L16.25 7.35L19.075 4.5L20.475 5.925L17.65 8.75ZM19 14L19 12L23 12L23 14L19 14ZM19.075 21.475L16.25 18.65L17.65 17.25L20.5 20.05L19.075 21.475ZM6.35 8.75L3.525 5.925L4.95 4.5L7.75 7.35L6.35 8.75ZM6 20L10.5 20C10.9167 20 11.2707 19.854 11.562 19.562C11.854 19.2707 12 18.9167 12 18.5C12 18.0833 11.8583 17.7293 11.575 17.438C11.2917 17.146 10.9417 17 10.525 17L9.25 17L8.75 15.8C8.51666 15.25 8.15 14.8127 7.65 14.488C7.15 14.1627 6.6 14 6 14C5.16666 14 4.45833 14.2917 3.875 14.875C3.29166 15.4583 3 16.1667 3 17C3 17.8333 3.29166 18.5417 3.875 19.125C4.45833 19.7083 5.16666 20 6 20ZM6 22C4.61666 22 3.43766 21.5127 2.463 20.538C1.48766 19.5627 0.999997 18.3833 0.999997 17C0.999998 15.6167 1.48766 14.4373 2.463 13.462C3.43766 12.4873 4.61667 12 6 12C7 12 7.91266 12.2707 8.738 12.812C9.56266 13.354 10.175 14.0833 10.575 15C11.5417 15 12.354 15.3583 13.012 16.075C13.6707 16.7917 14 17.65 14 18.65C13.9667 19.6 13.6127 20.396 12.938 21.038C12.2627 21.6793 11.45 22 10.5 22L6 22ZM14 18.65C13.9167 18.3167 13.8333 17.9917 13.75 17.675C13.6667 17.3583 13.5833 17.0333 13.5 16.7C14.25 16.3833 14.854 15.8917 15.312 15.225C15.7707 14.5583 16 13.8167 16 13C16 11.9 15.6083 10.9583 14.825 10.175C14.0417 9.39167 13.1 9 12 9C11 9 10.125 9.325 9.375 9.975C8.625 10.625 8.18333 11.45 8.05 12.45C7.71666 12.3667 7.375 12.2917 7.025 12.225C6.675 12.1583 6.33333 12.0833 6 12C6.23333 10.5333 6.92067 9.33333 8.062 8.4C9.204 7.46667 10.5167 7 12 7C13.6667 7 15.0833 7.58334 16.25 8.75C17.4167 9.91667 18 11.3333 18 13C18 14.2833 17.6333 15.4373 16.9 16.462C16.1667 17.4873 15.2 18.2167 14 18.65Z" fill="#333333"/>
</svg>