<svg width="24" height="24" viewBox="0 0 24 24" fill="none" xmlns="http://www.w3.org/2000/svg">
<path d="M7.5 16C5.98333 16 4.68766 15.4623 3.613 14.387C2.53766 13.3123 2 12.0167 2 10.5C2 9.11667 2.45833 7.90833 3.375 6.875C4.29167 5.84167 5.425 5.23333 6.775 5.05C7.30833 4.1 8.03767 3.354 8.963 2.812C9.88767 2.27067 10.9 2 12 2C13.5 2 14.804 2.47934 15.912 3.438C17.0207 4.396 17.6917 5.59167 17.925 7.025C19.075 7.125 20.0417 7.6 20.825 8.45C21.6083 9.3 22 10.3167 22 11.5C22 12.75 21.5627 13.8127 20.688 14.688C19.8127 15.5627 18.75 16 17.5 16L7.5 16ZM7.5 14L17.5 14C18.2 14 18.7917 13.7583 19.275 13.275C19.7583 12.7917 20 12.2 20 11.5C20 10.8 19.7583 10.2083 19.275 9.725C18.7917 9.24167 18.2 9 17.5 9L16 9L16 8C16 6.9 15.6083 5.95834 14.825 5.175C14.0417 4.39167 13.1 4 12 4C11.2 4 10.4707 4.21667 9.812 4.65C9.154 5.08333 8.65833 5.66667 8.325 6.4L8.075 7L7.45 7C6.5 7.03333 5.68767 7.38733 5.013 8.062C4.33767 8.73733 4 9.55 4 10.5C4 11.4667 4.34166 12.2917 5.025 12.975C5.70833 13.6583 6.53333 14 7.5 14Z" fill="#333333"/>
<path d="M18 17L20.5 22H18.5L16 17H18Z" fill="#333333"/>
<path d="M13 17L15.5 22H13.5L11 17H13Z" fill="#333333"/>
<path d="M7.99999 17L10.5 22H8.5L5.99999 17H7.99999Z" fill="#333333"/>
</svg>