<svg width="24" height="24" viewBox="0 0 24 24" fill="none" xmlns="http://www.w3.org/2000/svg">
<path d="M13 19L13 23L11 23L11 19L13 19ZM6.35 16.25L7.725 17.625L4.925 20.5L3.525 19.075L6.35 16.25ZM5 11L5 13L0.999999 13L0.999999 11L5 11ZM13 1L13 5L11 5L11 1L13 1ZM17.65 16.3L20.5 19.075L19.075 20.475L16.25 17.65L17.65 16.3ZM4.95 3.5L7.725 6.375L6.375 7.725L3.525 4.975L4.95 3.5ZM23 11L23 13L19 13L19 11L23 11ZM19.075 3.5L20.475 4.925L17.675 7.725L16.95 7.05L16.225 6.35L19.075 3.5ZM12 6C13.6667 6 15.0833 6.58333 16.25 7.75C17.4167 8.91667 18 10.3333 18 12C18 13.6667 17.4167 15.0833 16.25 16.25C15.0833 17.4167 13.6667 18 12 18C10.3333 18 8.91667 17.4167 7.75 16.25C6.58333 15.0833 6 13.6667 6 12C6 10.3333 6.58333 8.91667 7.75 7.75C8.91667 6.58334 10.3333 6 12 6ZM12 8C10.9 8 9.95833 8.39167 9.175 9.175C8.39167 9.95834 8 10.9 8 12C8 13.1 8.39167 14.0417 9.175 14.825C9.95833 15.6083 10.9 16 12 16C13.1 16 14.0417 15.6083 14.825 14.825C15.6083 14.0417 16 13.1 16 12C16 10.9 15.6083 9.95833 14.825 9.175C14.0417 8.39167 13.1 8 12 8Z" fill="#333333"/>
</svg>