<svg width="24" height="24" viewBox="0 0 24 24" fill="none" xmlns="http://www.w3.org/2000/svg">
<path d="M11.55 23L13.9 20.325L11.9 19.325L14.8 16L17.45 16L15.1 18.675L17.1 19.675L14.2 23L11.55 23ZM5.55 23L7.9 20.325L5.9 19.325L8.8 16L11.45 16L9.1 18.675L11.1 19.675L8.2 23L5.55 23ZM7.5 15C5.98333 15 4.68766 14.4623 3.613 13.387C2.53766 12.3123 2 11.0167 2 9.5C2 8.11667 2.45833 6.90833 3.375 5.875C4.29167 4.84167 5.425 4.23333 6.775 4.05C7.30833 3.1 8.03767 2.354 8.963 1.812C9.88767 1.27067 10.9 1 12 1C13.5 1 14.804 1.47934 15.912 2.438C17.0207 3.396 17.6917 4.59167 17.925 6.025C19.075 6.125 20.0417 6.6 20.825 7.45C21.6083 8.3 22 9.31667 22 10.5C22 11.75 21.5627 12.8127 20.688 13.688C19.8127 14.5627 18.75 15 17.5 15L7.5 15ZM7.5 13L17.5 13C18.2 13 18.7917 12.7583 19.275 12.275C19.7583 11.7917 20 11.2 20 10.5C20 9.8 19.7583 9.20834 19.275 8.725C18.7917 8.24167 18.2 8 17.5 8L16 8L16 7C16 5.9 15.6083 4.95834 14.825 4.175C14.0417 3.39167 13.1 3 12 3C11.2 3 10.4707 3.21667 9.812 3.65C9.154 4.08333 8.65833 4.66667 8.325 5.4L8.075 6L7.45 6C6.5 6.03333 5.68767 6.38733 5.013 7.062C4.33767 7.73733 4 8.55 4 9.5C4 10.4667 4.34166 11.2917 5.025 11.975C5.70833 12.6583 6.53333 13 7.5 13Z" fill="#333333"/>
</svg>