<svg width="24" height="24" viewBox="0 0 24 24" fill="none" xmlns="http://www.w3.org/2000/svg">
<path d="M11.5 20C10.6667 20 9.95833 19.7083 9.375 19.125C8.79166 18.5417 8.5 17.8333 8.5 17L10.5 17C10.5 17.2833 10.596 17.5207 10.788 17.712C10.9793 17.904 11.2167 18 11.5 18C11.7833 18 12.021 17.904 12.213 17.712C12.4043 17.5207 12.5 17.2833 12.5 17C12.5 16.7167 12.4043 16.4793 12.213 16.288C12.021 16.096 11.7833 16 11.5 16L2 16L2 14L11.5 14C12.3333 14 13.0417 14.2917 13.625 14.875C14.2083 15.4583 14.5 16.1667 14.5 17C14.5 17.8333 14.2083 18.5417 13.625 19.125C13.0417 19.7083 12.3333 20 11.5 20ZM2 10L2 8L15.5 8C15.9333 8 16.2917 7.85834 16.575 7.575C16.8583 7.29167 17 6.93334 17 6.5C17 6.06667 16.8583 5.70834 16.575 5.425C16.2917 5.14167 15.9333 5 15.5 5C15.0667 5 14.7083 5.14167 14.425 5.425C14.1417 5.70834 14 6.06667 14 6.5L12 6.5C12 5.51667 12.3373 4.68734 13.012 4.012C13.6873 3.33734 14.5167 3 15.5 3C16.4833 3 17.3127 3.33734 17.988 4.012C18.6627 4.68734 19 5.51667 19 6.5C19 7.48334 18.6627 8.31234 17.988 8.987C17.3127 9.66234 16.4833 10 15.5 10L2 10ZM18.5 18L18.5 16C18.9333 16 19.2917 15.8583 19.575 15.575C19.8583 15.2917 20 14.9333 20 14.5C20 14.0667 19.8583 13.7083 19.575 13.425C19.2917 13.1417 18.9333 13 18.5 13L2 13L2 11L18.5 11C19.4833 11 20.3127 11.3373 20.988 12.012C21.6627 12.6873 22 13.5167 22 14.5C22 15.4833 21.6627 16.3127 20.988 16.988C20.3127 17.6627 19.4833 18 18.5 18Z" fill="#333333"/>
</svg>