<svg width="24" height="24" viewBox="0 0 24 24" fill="none" xmlns="http://www.w3.org/2000/svg">
<path d="M6.33525 4.36493C8.62821 6.08637 11.0944 9.57676 12 11.4498C12.9056 9.57679 15.3718 6.08637 17.6648 4.36489C19.3192 3.12285 22 2.16176 22 5.21996C22 5.83074 21.6498 10.3507 21.4444 11.0846C20.7305 13.6357 18.1291 14.2864 15.815 13.8926C19.8599 14.581 20.8889 16.8613 18.6667 19.1415C14.4462 23.4723 12.6007 18.055 12.1279 16.6669C12.0412 16.4124 12.0006 16.2933 12 16.3946C11.9994 16.2933 11.9588 16.4124 11.8721 16.6669C11.3993 18.055 9.55377 23.4723 5.33335 19.1415C3.11113 16.8613 4.14004 14.581 8.18497 13.8926C5.87088 14.2864 3.26947 13.6357 2.55556 11.0845C2.35018 10.3507 2 5.83067 2 5.21993C2 2.16176 4.68081 3.12281 6.33525 4.36493Z" fill="#333333"/>
<defs>
<clipPath>
<rect width="20" height="20" fill="white" transform="translate(2 2)"/>
</clipPath>
</defs>
</svg>