<svg width="24" height="24" viewBox="0 0 24 24" fill="none" xmlns="http://www.w3.org/2000/svg">
<g clip-path="url(#clip0_74_800)">
<path d="M20.5236 2L3.47639 2C2.66111 2 2 2.66111 2 3.47639L2 20.5236C2 21.3389 2.66111 22 3.47639 22L20.5236 22C21.3389 22 22 21.3389 22 20.5236L22 3.47639C22 2.66111 21.3389 2 20.5236 2ZM7.96111 19.0389L4.95416 19.0389L4.95417 9.48611L7.96111 9.48611L7.96111 19.0389ZM6.45833 8.16389C5.50139 8.16389 4.725 7.43472 4.725 6.4375C4.725 5.44028 5.50139 4.71111 6.45833 4.71111C7.41528 4.71111 8.19167 5.44028 8.19167 6.4375C8.19167 7.43472 7.41528 8.16389 6.45833 8.16389ZM19.0458 19.0458L16.0389 19.0458L16.0389 13.8292C16.0389 12.2903 15.3847 11.8153 14.5403 11.8153C13.6486 11.8153 12.7736 12.4861 12.7736 13.8681L12.7736 19.0472L9.76666 19.0472L9.76667 9.49306L12.6583 9.49306L12.6583 10.8167L12.6972 10.8167C12.9875 10.2292 14.0042 9.225 15.5556 9.225C17.2333 9.225 19.0458 10.2208 19.0458 13.1375L19.0458 19.0458Z" fill="#333333"/>
</g>
<defs>
<clipPath id="clip0_74_800">
<rect width="20" height="20" fill="white" transform="translate(2 2)"/>
</clipPath>
</defs>
</svg>