<svg width="24" height="24" viewBox="0 0 24 24" fill="none" xmlns="http://www.w3.org/2000/svg">
<path d="M21.9285 16.6276C21.7895 16.2437 21.5248 16.0382 21.2233 15.8681C21.1666 15.8343 21.1145 15.8074 21.07 15.7866C20.9801 15.7394 20.8881 15.6937 20.7966 15.6455C19.8569 15.1396 19.1231 14.5015 18.6142 13.7451C18.4697 13.5321 18.3443 13.3064 18.2396 13.0706C18.1962 12.9445 18.1982 12.8729 18.2294 12.8075C18.2603 12.7572 18.3012 12.7139 18.3495 12.6804C18.511 12.572 18.6776 12.462 18.7905 12.3878C18.9918 12.2555 19.1512 12.1507 19.254 12.0765C19.6398 11.8026 19.9096 11.5115 20.0782 11.1862C20.1958 10.9615 20.2645 10.7137 20.2794 10.4596C20.2943 10.2055 20.2551 9.95116 20.1645 9.71382C19.9091 9.03105 19.2739 8.60718 18.5043 8.60718C18.342 8.60702 18.1801 8.62441 18.0214 8.65906C17.979 8.6684 17.9366 8.67826 17.8952 8.68915C17.9024 8.22221 17.8922 7.72933 17.8513 7.24424C17.7062 5.53888 17.118 4.64495 16.5048 3.93209C16.1121 3.48538 15.6496 3.10745 15.1359 2.81351C14.2053 2.27394 13.1501 2 11.9999 2C10.8497 2 9.79956 2.27394 8.86802 2.81351C8.353 3.10754 7.88955 3.48623 7.49652 3.93416C6.88332 4.64702 6.29517 5.54251 6.15005 7.24631C6.10917 7.73141 6.09895 8.22688 6.10559 8.69122C6.0642 8.68033 6.0223 8.67047 5.97989 8.66113C5.82119 8.62649 5.65932 8.6091 5.497 8.60925C4.72693 8.60925 4.09074 9.03313 3.83627 9.71589C3.74531 9.95333 3.70576 10.2079 3.72031 10.4622C3.73486 10.7165 3.80316 10.9647 3.92058 11.1899C4.08972 11.5152 4.35953 11.8062 4.74533 12.0802C4.84753 12.1528 5.00747 12.2576 5.2088 12.3915C5.31764 12.463 5.47656 12.5678 5.63241 12.6727C5.68694 12.7084 5.73329 12.7557 5.76834 12.8112C5.80104 12.8791 5.80206 12.9523 5.75352 13.0872C5.65026 13.318 5.52697 13.539 5.38509 13.7476C4.88738 14.487 4.17506 15.1137 3.26549 15.6154C2.78362 15.8748 2.28285 16.0481 2.0713 16.6318C1.91187 17.0722 2.01611 17.5734 2.42133 17.9957C2.57005 18.1534 2.74254 18.2859 2.93232 18.3885C3.32721 18.6088 3.74712 18.7794 4.18272 18.8964C4.27261 18.92 4.35795 18.9587 4.43515 19.0111C4.58283 19.1423 4.56188 19.34 4.75861 19.6295C4.85737 19.7791 4.98285 19.9086 5.12857 20.0114C5.54145 20.3009 6.00543 20.319 6.49701 20.3382C6.94106 20.3553 7.44439 20.3751 8.01926 20.5675C8.25738 20.6474 8.5047 20.802 8.79137 20.9826C9.47968 21.4122 10.4219 22 11.9989 22C13.5758 22 14.5247 21.4091 15.2181 20.9779C15.5028 20.8005 15.7485 20.6474 15.98 20.5696C16.5549 20.3766 17.0582 20.3574 17.5023 20.3403C17.9938 20.3211 18.4578 20.3029 18.8707 20.0134C19.0433 19.8913 19.1871 19.7318 19.2918 19.5465C19.4333 19.3021 19.4297 19.1314 19.5626 19.0121C19.635 18.9623 19.7152 18.9251 19.7997 18.9021C20.2412 18.7847 20.6669 18.6126 21.067 18.3895C21.2686 18.2797 21.4501 18.1354 21.6035 17.9631L21.6086 17.9568C21.9888 17.5439 22.0843 17.0572 21.9285 16.6276ZM20.5268 17.3924C19.672 17.8718 19.1037 17.8204 18.6617 18.1094C18.2861 18.3548 18.5084 18.884 18.2355 19.0749C17.9003 19.3099 16.9095 19.0583 15.6295 19.4874C14.5738 19.8417 13.9003 20.8607 12.0014 20.8607C10.1026 20.8607 9.44493 19.8438 8.37184 19.4848C7.09436 19.0557 6.1015 19.3073 5.76578 19.0723C5.49342 18.8814 5.71468 18.3522 5.33961 18.1068C4.89709 17.8178 4.32887 17.8692 3.47449 17.3924C2.93028 17.0873 3.23892 16.8984 3.42032 16.8092C6.51694 15.287 7.01107 12.9367 7.03304 12.7624C7.05962 12.5512 7.08925 12.3852 6.86033 12.1704C6.63907 11.9629 5.65745 11.346 5.38509 11.153C4.93439 10.8334 4.73613 10.5144 4.88227 10.1221C4.98447 9.85079 5.23384 9.74858 5.49547 9.74858C5.57815 9.74884 5.66057 9.75823 5.74125 9.7766C6.23589 9.88555 6.71623 10.1372 6.9937 10.2051C7.02711 10.2138 7.06141 10.2186 7.0959 10.2192C7.24408 10.2192 7.29621 10.1434 7.28599 9.97116C7.2543 9.42172 7.17766 8.35088 7.26299 7.35008C7.38001 5.97313 7.81691 5.29088 8.33608 4.68749C8.58544 4.39747 9.75715 3.14037 11.9979 3.14037C14.2386 3.14037 15.4133 4.39228 15.6627 4.68127C16.1824 5.28465 16.6198 5.9669 16.7358 7.34385C16.8211 8.34466 16.7475 9.41602 16.7128 9.96493C16.701 10.146 16.7547 10.2129 16.9029 10.2129C16.9374 10.2124 16.9717 10.2077 17.0051 10.1989C17.2831 10.131 17.7634 9.87932 18.258 9.77037C18.3387 9.75201 18.4211 9.74261 18.5038 9.74236C18.767 9.74236 19.0148 9.84612 19.117 10.1159C19.2632 10.5081 19.0659 10.8272 18.6147 11.1468C18.3423 11.3398 17.3607 11.9562 17.1395 12.1642C16.91 12.379 16.9402 12.545 16.9668 12.7562C16.9887 12.9331 17.4823 15.2834 20.5795 16.803C20.7624 16.8959 21.071 17.0847 20.5268 17.3924Z" fill="#333333"/>
</svg>
