<svg width="24" height="24" viewBox="0 0 24 24" fill="none" xmlns="http://www.w3.org/2000/svg">
<g clip-path="url(#clip0_74_801)">
<path d="M18.4609 5.80844C17.4108 5.14097 16.6528 4.07347 16.4165 2.82894C16.3654 2.55993 16.3374 2.2833 16.3374 2L12.9858 2L12.9803 15.0911C12.9239 16.5571 11.6861 17.7337 10.1684 17.7337C9.69672 17.7337 9.25242 17.6189 8.86151 17.4181C7.96479 16.9581 7.35124 16.0419 7.35124 14.9877C7.35124 13.4735 8.61512 12.2417 10.1684 12.2417C10.4584 12.2417 10.7363 12.2883 10.9997 12.3686L10.9997 9.0338C10.7272 8.99763 10.4506 8.97511 10.1684 8.97511C6.76731 8.97542 4 11.6726 4 14.9877C4 17.0218 5.04287 18.8218 6.63353 19.9103C7.63539 20.5958 8.85435 21 10.1687 21C13.57 21 16.3374 18.3028 16.3374 14.9877L16.3374 8.34951C17.6517 9.26919 19.2622 9.81103 21 9.81103L21 6.54443C20.0639 6.54443 19.1919 6.27319 18.4609 5.80844Z" fill="#333333"/>
</g>
<defs>
<clipPath id="clip0_74_801">
<rect width="17" height="19" fill="white" transform="translate(4 2)"/>
</clipPath>
</defs>
</svg>