<svg width="24" height="24" viewBox="0 0 24 24" fill="none" xmlns="http://www.w3.org/2000/svg">
<path fill-rule="evenodd" clip-rule="evenodd" d="M19.8136 4.44758C20.6739 4.69436 21.3523 5.42016 21.5818 6.34194C22 8.01371 22 11.5 22 11.5C22 11.5 22 14.9875 21.5818 16.6581C21.3523 17.5798 20.6739 18.3056 19.8136 18.5524C18.2545 19 12 19 12 19C12 19 5.74659 19 4.18636 18.5524C3.32614 18.3056 2.64773 17.5798 2.41818 16.6581C2 14.9863 2 11.5 2 11.5C2 11.5 2 8.01371 2.41818 6.34193C2.64773 5.42016 3.32614 4.69435 4.18637 4.44758C5.74546 4 12 4 12 4C12 4 18.2545 4 19.8136 4.44758ZM15.1818 11.5L9.95454 14.6657L9.95455 8.33427L15.1818 11.5Z" fill="#333333"/>
</svg>