<svg width="24" height="24" viewBox="0 0 24 24" fill="none" xmlns="http://www.w3.org/2000/svg">
<path d="M6.78 13.575L17.58 13.575V12.225L6.78 12.225V13.575ZM6.78 10.65L17.58 10.65V9.3L6.78 9.3V10.65ZM6.78 7.725L17.58 7.725V6.375L6.78 6.375V7.725ZM21 21L17.4 17.4H4.35C4.005 17.4 3.69375 17.2612 3.41625 16.9838C3.13875 16.7063 3 16.395 3 16.05L3 4.35C3 4.005 3.13875 3.69375 3.41625 3.41625C3.69375 3.13875 4.005 3 4.35 3L19.65 3C20.01 3 20.325 3.13875 20.595 3.41625C20.865 3.69375 21 4.005 21 4.35L21 21Z" fill="#333333"/>
</svg>